<svg xmlns="http://www.w3.org/2000/svg" viewBox="0 0 1000 1250">
    <defs>
      <linearGradient id="bg" x1="0" x2="1" y1="0" y2="1"><stop offset="0" stop-color="#ff2f6d"/><stop offset="1" stop-color="#ff9ab8"/></linearGradient>
      <radialGradient id="glow" cx="35%" cy="22%" r="65%"><stop offset="0" stop-color="#fff" stop-opacity=".65"/><stop offset="1" stop-color="#fff" stop-opacity="0"/></radialGradient>
      <filter id="shadow"><feDropShadow dx="0" dy="22" stdDeviation="18" flood-color="#000" flood-opacity=".28"/></filter>
    </defs><rect width="1000" height="1250" rx="70" fill="url(#bg)"/><rect width="1000" height="1250" rx="70" fill="url(#glow)"/><g opacity=".16"><circle cx="80" cy="90" r="3" fill="#fff"/><circle cx="80" cy="260" r="3" fill="#fff"/><circle cx="80" cy="430" r="3" fill="#fff"/><circle cx="80" cy="600" r="3" fill="#fff"/><circle cx="80" cy="770" r="3" fill="#fff"/><circle cx="80" cy="940" r="3" fill="#fff"/><circle cx="80" cy="1110" r="3" fill="#fff"/><circle cx="220" cy="90" r="3" fill="#fff"/><circle cx="220" cy="260" r="3" fill="#fff"/><circle cx="220" cy="430" r="3" fill="#fff"/><circle cx="220" cy="600" r="3" fill="#fff"/><circle cx="220" cy="770" r="3" fill="#fff"/><circle cx="220" cy="940" r="3" fill="#fff"/><circle cx="220" cy="1110" r="3" fill="#fff"/><circle cx="360" cy="90" r="3" fill="#fff"/><circle cx="360" cy="260" r="3" fill="#fff"/><circle cx="360" cy="430" r="3" fill="#fff"/><circle cx="360" cy="600" r="3" fill="#fff"/><circle cx="360" cy="770" r="3" fill="#fff"/><circle cx="360" cy="940" r="3" fill="#fff"/><circle cx="360" cy="1110" r="3" fill="#fff"/><circle cx="500" cy="90" r="3" fill="#fff"/><circle cx="500" cy="260" r="3" fill="#fff"/><circle cx="500" cy="430" r="3" fill="#fff"/><circle cx="500" cy="600" r="3" fill="#fff"/><circle cx="500" cy="770" r="3" fill="#fff"/><circle cx="500" cy="940" r="3" fill="#fff"/><circle cx="500" cy="1110" r="3" fill="#fff"/><circle cx="640" cy="90" r="3" fill="#fff"/><circle cx="640" cy="260" r="3" fill="#fff"/><circle cx="640" cy="430" r="3" fill="#fff"/><circle cx="640" cy="600" r="3" fill="#fff"/><circle cx="640" cy="770" r="3" fill="#fff"/><circle cx="640" cy="940" r="3" fill="#fff"/><circle cx="640" cy="1110" r="3" fill="#fff"/><circle cx="780" cy="90" r="3" fill="#fff"/><circle cx="780" cy="260" r="3" fill="#fff"/><circle cx="780" cy="430" r="3" fill="#fff"/><circle cx="780" cy="600" r="3" fill="#fff"/><circle cx="780" cy="770" r="3" fill="#fff"/><circle cx="780" cy="940" r="3" fill="#fff"/><circle cx="780" cy="1110" r="3" fill="#fff"/><circle cx="920" cy="90" r="3" fill="#fff"/><circle cx="920" cy="260" r="3" fill="#fff"/><circle cx="920" cy="430" r="3" fill="#fff"/><circle cx="920" cy="600" r="3" fill="#fff"/><circle cx="920" cy="770" r="3" fill="#fff"/><circle cx="920" cy="940" r="3" fill="#fff"/><circle cx="920" cy="1110" r="3" fill="#fff"/></g><g filter="url(#shadow)"><rect x="300" y="330" width="105" height="510" rx="36" fill="rgba(255,255,255,.34)" stroke="#fff" stroke-width="8"/><rect x="318" y="500" width="69" height="300" rx="24" fill="#ff3c69"/><rect x="310" y="290" width="85" height="130" rx="22" fill="#ffb0c3"/></g><g filter="url(#shadow)"><rect x="470" y="330" width="105" height="510" rx="36" fill="rgba(255,255,255,.34)" stroke="#fff" stroke-width="8"/><rect x="488" y="500" width="69" height="300" rx="24" fill="#ff6f91"/><rect x="480" y="290" width="85" height="130" rx="22" fill="#ffb0c3"/></g><g filter="url(#shadow)"><rect x="640" y="330" width="105" height="510" rx="36" fill="rgba(255,255,255,.34)" stroke="#fff" stroke-width="8"/><rect x="658" y="500" width="69" height="300" rx="24" fill="#d81845"/><rect x="650" y="290" width="85" height="130" rx="22" fill="#ffb0c3"/></g><ellipse cx="500" cy="910" rx="310" ry="48" fill="#8b0023" opacity=".24"/></svg>