<svg xmlns="http://www.w3.org/2000/svg" viewBox="0 0 1000 1250">
    <defs>
      <linearGradient id="bg" x1="0" x2="1" y1="0" y2="1"><stop offset="0" stop-color="#050b2b"/><stop offset="1" stop-color="#3b82f6"/></linearGradient>
      <radialGradient id="glow" cx="35%" cy="22%" r="65%"><stop offset="0" stop-color="#fff" stop-opacity=".65"/><stop offset="1" stop-color="#fff" stop-opacity="0"/></radialGradient>
      <filter id="shadow"><feDropShadow dx="0" dy="22" stdDeviation="18" flood-color="#000" flood-opacity=".28"/></filter>
    </defs><rect width="1000" height="1250" rx="70" fill="url(#bg)"/><rect width="1000" height="1250" rx="70" fill="url(#glow)"/><g opacity=".16"><circle cx="80" cy="90" r="3" fill="#fff"/><circle cx="80" cy="260" r="3" fill="#fff"/><circle cx="80" cy="430" r="3" fill="#fff"/><circle cx="80" cy="600" r="3" fill="#fff"/><circle cx="80" cy="770" r="3" fill="#fff"/><circle cx="80" cy="940" r="3" fill="#fff"/><circle cx="80" cy="1110" r="3" fill="#fff"/><circle cx="220" cy="90" r="3" fill="#fff"/><circle cx="220" cy="260" r="3" fill="#fff"/><circle cx="220" cy="430" r="3" fill="#fff"/><circle cx="220" cy="600" r="3" fill="#fff"/><circle cx="220" cy="770" r="3" fill="#fff"/><circle cx="220" cy="940" r="3" fill="#fff"/><circle cx="220" cy="1110" r="3" fill="#fff"/><circle cx="360" cy="90" r="3" fill="#fff"/><circle cx="360" cy="260" r="3" fill="#fff"/><circle cx="360" cy="430" r="3" fill="#fff"/><circle cx="360" cy="600" r="3" fill="#fff"/><circle cx="360" cy="770" r="3" fill="#fff"/><circle cx="360" cy="940" r="3" fill="#fff"/><circle cx="360" cy="1110" r="3" fill="#fff"/><circle cx="500" cy="90" r="3" fill="#fff"/><circle cx="500" cy="260" r="3" fill="#fff"/><circle cx="500" cy="430" r="3" fill="#fff"/><circle cx="500" cy="600" r="3" fill="#fff"/><circle cx="500" cy="770" r="3" fill="#fff"/><circle cx="500" cy="940" r="3" fill="#fff"/><circle cx="500" cy="1110" r="3" fill="#fff"/><circle cx="640" cy="90" r="3" fill="#fff"/><circle cx="640" cy="260" r="3" fill="#fff"/><circle cx="640" cy="430" r="3" fill="#fff"/><circle cx="640" cy="600" r="3" fill="#fff"/><circle cx="640" cy="770" r="3" fill="#fff"/><circle cx="640" cy="940" r="3" fill="#fff"/><circle cx="640" cy="1110" r="3" fill="#fff"/><circle cx="780" cy="90" r="3" fill="#fff"/><circle cx="780" cy="260" r="3" fill="#fff"/><circle cx="780" cy="430" r="3" fill="#fff"/><circle cx="780" cy="600" r="3" fill="#fff"/><circle cx="780" cy="770" r="3" fill="#fff"/><circle cx="780" cy="940" r="3" fill="#fff"/><circle cx="780" cy="1110" r="3" fill="#fff"/><circle cx="920" cy="90" r="3" fill="#fff"/><circle cx="920" cy="260" r="3" fill="#fff"/><circle cx="920" cy="430" r="3" fill="#fff"/><circle cx="920" cy="600" r="3" fill="#fff"/><circle cx="920" cy="770" r="3" fill="#fff"/><circle cx="920" cy="940" r="3" fill="#fff"/><circle cx="920" cy="1110" r="3" fill="#fff"/></g><g filter="url(#shadow)"><rect x="170" y="470" width="660" height="320" rx="35" fill="#050816" stroke="#60a5fa" stroke-width="10" transform="skewY(-6)"/><rect x="230" y="520" width="50" height="38" rx="8" fill="#1e3a8a" stroke="#93c5fd" stroke-width="3" transform="skewY(-6)"/><rect x="305" y="520" width="50" height="38" rx="8" fill="#1e3a8a" stroke="#93c5fd" stroke-width="3" transform="skewY(-6)"/><rect x="380" y="520" width="50" height="38" rx="8" fill="#1e3a8a" stroke="#93c5fd" stroke-width="3" transform="skewY(-6)"/><rect x="455" y="520" width="50" height="38" rx="8" fill="#1e3a8a" stroke="#93c5fd" stroke-width="3" transform="skewY(-6)"/><rect x="530" y="520" width="50" height="38" rx="8" fill="#1e3a8a" stroke="#93c5fd" stroke-width="3" transform="skewY(-6)"/><rect x="605" y="520" width="50" height="38" rx="8" fill="#1e3a8a" stroke="#93c5fd" stroke-width="3" transform="skewY(-6)"/><rect x="680" y="520" width="50" height="38" rx="8" fill="#1e3a8a" stroke="#93c5fd" stroke-width="3" transform="skewY(-6)"/><rect x="230" y="585" width="50" height="38" rx="8" fill="#1e3a8a" stroke="#93c5fd" stroke-width="3" transform="skewY(-6)"/><rect x="305" y="585" width="50" height="38" rx="8" fill="#1e3a8a" stroke="#93c5fd" stroke-width="3" transform="skewY(-6)"/><rect x="380" y="585" width="50" height="38" rx="8" fill="#1e3a8a" stroke="#93c5fd" stroke-width="3" transform="skewY(-6)"/><rect x="455" y="585" width="50" height="38" rx="8" fill="#1e3a8a" stroke="#93c5fd" stroke-width="3" transform="skewY(-6)"/><rect x="530" y="585" width="50" height="38" rx="8" fill="#1e3a8a" stroke="#93c5fd" stroke-width="3" transform="skewY(-6)"/><rect x="605" y="585" width="50" height="38" rx="8" fill="#1e3a8a" stroke="#93c5fd" stroke-width="3" transform="skewY(-6)"/><rect x="680" y="585" width="50" height="38" rx="8" fill="#1e3a8a" stroke="#93c5fd" stroke-width="3" transform="skewY(-6)"/><rect x="230" y="650" width="50" height="38" rx="8" fill="#1e3a8a" stroke="#93c5fd" stroke-width="3" transform="skewY(-6)"/><rect x="305" y="650" width="50" height="38" rx="8" fill="#1e3a8a" stroke="#93c5fd" stroke-width="3" transform="skewY(-6)"/><rect x="380" y="650" width="50" height="38" rx="8" fill="#1e3a8a" stroke="#93c5fd" stroke-width="3" transform="skewY(-6)"/><rect x="455" y="650" width="50" height="38" rx="8" fill="#1e3a8a" stroke="#93c5fd" stroke-width="3" transform="skewY(-6)"/><rect x="530" y="650" width="50" height="38" rx="8" fill="#1e3a8a" stroke="#93c5fd" stroke-width="3" transform="skewY(-6)"/><rect x="605" y="650" width="50" height="38" rx="8" fill="#1e3a8a" stroke="#93c5fd" stroke-width="3" transform="skewY(-6)"/><rect x="680" y="650" width="50" height="38" rx="8" fill="#1e3a8a" stroke="#93c5fd" stroke-width="3" transform="skewY(-6)"/><circle cx="755" cy="530" r="36" fill="#c4b5fd"/></g></svg>