<svg xmlns="http://www.w3.org/2000/svg" viewBox="0 0 1000 1250">
    <defs>
      <linearGradient id="bg" x1="0" x2="1" y1="0" y2="1"><stop offset="0" stop-color="#e31b23"/><stop offset="1" stop-color="#ffb000"/></linearGradient>
      <radialGradient id="glow" cx="35%" cy="22%" r="65%"><stop offset="0" stop-color="#fff" stop-opacity=".65"/><stop offset="1" stop-color="#fff" stop-opacity="0"/></radialGradient>
      <filter id="shadow"><feDropShadow dx="0" dy="22" stdDeviation="18" flood-color="#000" flood-opacity=".28"/></filter>
    </defs><rect width="1000" height="1250" rx="70" fill="url(#bg)"/><rect width="1000" height="1250" rx="70" fill="url(#glow)"/><g opacity=".16"><circle cx="80" cy="90" r="3" fill="#fff"/><circle cx="80" cy="260" r="3" fill="#fff"/><circle cx="80" cy="430" r="3" fill="#fff"/><circle cx="80" cy="600" r="3" fill="#fff"/><circle cx="80" cy="770" r="3" fill="#fff"/><circle cx="80" cy="940" r="3" fill="#fff"/><circle cx="80" cy="1110" r="3" fill="#fff"/><circle cx="220" cy="90" r="3" fill="#fff"/><circle cx="220" cy="260" r="3" fill="#fff"/><circle cx="220" cy="430" r="3" fill="#fff"/><circle cx="220" cy="600" r="3" fill="#fff"/><circle cx="220" cy="770" r="3" fill="#fff"/><circle cx="220" cy="940" r="3" fill="#fff"/><circle cx="220" cy="1110" r="3" fill="#fff"/><circle cx="360" cy="90" r="3" fill="#fff"/><circle cx="360" cy="260" r="3" fill="#fff"/><circle cx="360" cy="430" r="3" fill="#fff"/><circle cx="360" cy="600" r="3" fill="#fff"/><circle cx="360" cy="770" r="3" fill="#fff"/><circle cx="360" cy="940" r="3" fill="#fff"/><circle cx="360" cy="1110" r="3" fill="#fff"/><circle cx="500" cy="90" r="3" fill="#fff"/><circle cx="500" cy="260" r="3" fill="#fff"/><circle cx="500" cy="430" r="3" fill="#fff"/><circle cx="500" cy="600" r="3" fill="#fff"/><circle cx="500" cy="770" r="3" fill="#fff"/><circle cx="500" cy="940" r="3" fill="#fff"/><circle cx="500" cy="1110" r="3" fill="#fff"/><circle cx="640" cy="90" r="3" fill="#fff"/><circle cx="640" cy="260" r="3" fill="#fff"/><circle cx="640" cy="430" r="3" fill="#fff"/><circle cx="640" cy="600" r="3" fill="#fff"/><circle cx="640" cy="770" r="3" fill="#fff"/><circle cx="640" cy="940" r="3" fill="#fff"/><circle cx="640" cy="1110" r="3" fill="#fff"/><circle cx="780" cy="90" r="3" fill="#fff"/><circle cx="780" cy="260" r="3" fill="#fff"/><circle cx="780" cy="430" r="3" fill="#fff"/><circle cx="780" cy="600" r="3" fill="#fff"/><circle cx="780" cy="770" r="3" fill="#fff"/><circle cx="780" cy="940" r="3" fill="#fff"/><circle cx="780" cy="1110" r="3" fill="#fff"/><circle cx="920" cy="90" r="3" fill="#fff"/><circle cx="920" cy="260" r="3" fill="#fff"/><circle cx="920" cy="430" r="3" fill="#fff"/><circle cx="920" cy="600" r="3" fill="#fff"/><circle cx="920" cy="770" r="3" fill="#fff"/><circle cx="920" cy="940" r="3" fill="#fff"/><circle cx="920" cy="1110" r="3" fill="#fff"/></g><g filter="url(#shadow)"><rect x="220" y="610" width="560" height="250" rx="28" fill="#ef4444"/><g fill="#f59e0b"><circle cx="300" cy="520" r="72"/><circle cx="405" cy="565" r="72"/><circle cx="510" cy="520" r="72"/><circle cx="615" cy="565" r="72"/><circle cx="720" cy="520" r="72"/></g><rect x="655" y="500" width="110" height="250" rx="30" fill="#ffd166"/><rect x="215" y="830" width="570" height="45" fill="#7f1d1d" opacity=".35"/></g></svg>