<svg xmlns="http://www.w3.org/2000/svg" viewBox="0 0 1000 1250">
    <defs>
      <linearGradient id="bg" x1="0" x2="1" y1="0" y2="1"><stop offset="0" stop-color="#82c8ff"/><stop offset="1" stop-color="#f4f8ff"/></linearGradient>
      <radialGradient id="glow" cx="35%" cy="22%" r="65%"><stop offset="0" stop-color="#fff" stop-opacity=".65"/><stop offset="1" stop-color="#fff" stop-opacity="0"/></radialGradient>
      <filter id="shadow"><feDropShadow dx="0" dy="22" stdDeviation="18" flood-color="#000" flood-opacity=".28"/></filter>
    </defs><rect width="1000" height="1250" rx="70" fill="url(#bg)"/><rect width="1000" height="1250" rx="70" fill="url(#glow)"/><g opacity=".16"><circle cx="80" cy="90" r="3" fill="#fff"/><circle cx="80" cy="260" r="3" fill="#fff"/><circle cx="80" cy="430" r="3" fill="#fff"/><circle cx="80" cy="600" r="3" fill="#fff"/><circle cx="80" cy="770" r="3" fill="#fff"/><circle cx="80" cy="940" r="3" fill="#fff"/><circle cx="80" cy="1110" r="3" fill="#fff"/><circle cx="220" cy="90" r="3" fill="#fff"/><circle cx="220" cy="260" r="3" fill="#fff"/><circle cx="220" cy="430" r="3" fill="#fff"/><circle cx="220" cy="600" r="3" fill="#fff"/><circle cx="220" cy="770" r="3" fill="#fff"/><circle cx="220" cy="940" r="3" fill="#fff"/><circle cx="220" cy="1110" r="3" fill="#fff"/><circle cx="360" cy="90" r="3" fill="#fff"/><circle cx="360" cy="260" r="3" fill="#fff"/><circle cx="360" cy="430" r="3" fill="#fff"/><circle cx="360" cy="600" r="3" fill="#fff"/><circle cx="360" cy="770" r="3" fill="#fff"/><circle cx="360" cy="940" r="3" fill="#fff"/><circle cx="360" cy="1110" r="3" fill="#fff"/><circle cx="500" cy="90" r="3" fill="#fff"/><circle cx="500" cy="260" r="3" fill="#fff"/><circle cx="500" cy="430" r="3" fill="#fff"/><circle cx="500" cy="600" r="3" fill="#fff"/><circle cx="500" cy="770" r="3" fill="#fff"/><circle cx="500" cy="940" r="3" fill="#fff"/><circle cx="500" cy="1110" r="3" fill="#fff"/><circle cx="640" cy="90" r="3" fill="#fff"/><circle cx="640" cy="260" r="3" fill="#fff"/><circle cx="640" cy="430" r="3" fill="#fff"/><circle cx="640" cy="600" r="3" fill="#fff"/><circle cx="640" cy="770" r="3" fill="#fff"/><circle cx="640" cy="940" r="3" fill="#fff"/><circle cx="640" cy="1110" r="3" fill="#fff"/><circle cx="780" cy="90" r="3" fill="#fff"/><circle cx="780" cy="260" r="3" fill="#fff"/><circle cx="780" cy="430" r="3" fill="#fff"/><circle cx="780" cy="600" r="3" fill="#fff"/><circle cx="780" cy="770" r="3" fill="#fff"/><circle cx="780" cy="940" r="3" fill="#fff"/><circle cx="780" cy="1110" r="3" fill="#fff"/><circle cx="920" cy="90" r="3" fill="#fff"/><circle cx="920" cy="260" r="3" fill="#fff"/><circle cx="920" cy="430" r="3" fill="#fff"/><circle cx="920" cy="600" r="3" fill="#fff"/><circle cx="920" cy="770" r="3" fill="#fff"/><circle cx="920" cy="940" r="3" fill="#fff"/><circle cx="920" cy="1110" r="3" fill="#fff"/></g><g filter="url(#shadow)"><path d="M285 575 C285 320 715 320 715 575" fill="none" stroke="#f8fbff" stroke-width="70" stroke-linecap="round"/><rect x="230" y="560" width="150" height="245" rx="65" fill="#dbeafe" stroke="#fff" stroke-width="12"/><rect x="620" y="560" width="150" height="245" rx="65" fill="#dbeafe" stroke="#fff" stroke-width="12"/><ellipse cx="500" cy="890" rx="290" ry="45" fill="#1e3a8a" opacity=".2"/></g></svg>