<svg xmlns="http://www.w3.org/2000/svg" viewBox="0 0 1000 1250">
    <defs>
      <linearGradient id="bg" x1="0" x2="1" y1="0" y2="1"><stop offset="0" stop-color="#ffcc22"/><stop offset="1" stop-color="#ff4d6d"/></linearGradient>
      <radialGradient id="glow" cx="35%" cy="22%" r="65%"><stop offset="0" stop-color="#fff" stop-opacity=".65"/><stop offset="1" stop-color="#fff" stop-opacity="0"/></radialGradient>
      <filter id="shadow"><feDropShadow dx="0" dy="22" stdDeviation="18" flood-color="#000" flood-opacity=".28"/></filter>
    </defs><rect width="1000" height="1250" rx="70" fill="url(#bg)"/><rect width="1000" height="1250" rx="70" fill="url(#glow)"/><g opacity=".16"><circle cx="80" cy="90" r="3" fill="#fff"/><circle cx="80" cy="260" r="3" fill="#fff"/><circle cx="80" cy="430" r="3" fill="#fff"/><circle cx="80" cy="600" r="3" fill="#fff"/><circle cx="80" cy="770" r="3" fill="#fff"/><circle cx="80" cy="940" r="3" fill="#fff"/><circle cx="80" cy="1110" r="3" fill="#fff"/><circle cx="220" cy="90" r="3" fill="#fff"/><circle cx="220" cy="260" r="3" fill="#fff"/><circle cx="220" cy="430" r="3" fill="#fff"/><circle cx="220" cy="600" r="3" fill="#fff"/><circle cx="220" cy="770" r="3" fill="#fff"/><circle cx="220" cy="940" r="3" fill="#fff"/><circle cx="220" cy="1110" r="3" fill="#fff"/><circle cx="360" cy="90" r="3" fill="#fff"/><circle cx="360" cy="260" r="3" fill="#fff"/><circle cx="360" cy="430" r="3" fill="#fff"/><circle cx="360" cy="600" r="3" fill="#fff"/><circle cx="360" cy="770" r="3" fill="#fff"/><circle cx="360" cy="940" r="3" fill="#fff"/><circle cx="360" cy="1110" r="3" fill="#fff"/><circle cx="500" cy="90" r="3" fill="#fff"/><circle cx="500" cy="260" r="3" fill="#fff"/><circle cx="500" cy="430" r="3" fill="#fff"/><circle cx="500" cy="600" r="3" fill="#fff"/><circle cx="500" cy="770" r="3" fill="#fff"/><circle cx="500" cy="940" r="3" fill="#fff"/><circle cx="500" cy="1110" r="3" fill="#fff"/><circle cx="640" cy="90" r="3" fill="#fff"/><circle cx="640" cy="260" r="3" fill="#fff"/><circle cx="640" cy="430" r="3" fill="#fff"/><circle cx="640" cy="600" r="3" fill="#fff"/><circle cx="640" cy="770" r="3" fill="#fff"/><circle cx="640" cy="940" r="3" fill="#fff"/><circle cx="640" cy="1110" r="3" fill="#fff"/><circle cx="780" cy="90" r="3" fill="#fff"/><circle cx="780" cy="260" r="3" fill="#fff"/><circle cx="780" cy="430" r="3" fill="#fff"/><circle cx="780" cy="600" r="3" fill="#fff"/><circle cx="780" cy="770" r="3" fill="#fff"/><circle cx="780" cy="940" r="3" fill="#fff"/><circle cx="780" cy="1110" r="3" fill="#fff"/><circle cx="920" cy="90" r="3" fill="#fff"/><circle cx="920" cy="260" r="3" fill="#fff"/><circle cx="920" cy="430" r="3" fill="#fff"/><circle cx="920" cy="600" r="3" fill="#fff"/><circle cx="920" cy="770" r="3" fill="#fff"/><circle cx="920" cy="940" r="3" fill="#fff"/><circle cx="920" cy="1110" r="3" fill="#fff"/></g><g filter="url(#shadow)"><rect x="220" y="570" width="560" height="300" rx="25" fill="#1da1f2"/><rect x="220" y="570" width="560" height="100" fill="#ff4d6d"/><rect x="250" y="430" width="90" height="210" rx="18" fill="#ffb703"/><rect x="365" y="380" width="90" height="260" rx="18" fill="#06d6a0"/><rect x="480" y="420" width="90" height="220" rx="18" fill="#ffd166"/><rect x="595" y="390" width="90" height="250" rx="18" fill="#ef476f"/><circle cx="690" cy="775" r="90" fill="#ffd166"/></g></svg>